<svg width="337" height="292" viewBox="0 0 337 292" fill="none" xmlns="http://www.w3.org/2000/svg">
<path d="M290.738 268.006L290.815 289.313L41.7942 290.206L41.7203 268.897L58.5654 268.837L58.5001 250.736L103.855 250.572L103.92 268.676L232.548 268.214L232.483 250.114L277.837 249.953L277.901 268.05L290.738 268.006ZM300.018 129.94L299.772 131.483V131.517L298.966 136.641C299.011 136.712 299.062 136.773 299.107 136.844C298.782 138.446 298.309 140.05 297.625 141.066C297.625 141.066 292.216 145.595 287.762 145.296C284.149 145.061 283.035 142.669 282.738 141.767C282.667 141.556 282.65 141.434 282.65 141.434C282.65 141.434 276.828 141.285 275.285 136.248L272.866 136.796L273.272 249.767L261.248 249.81L250.217 249.85L238.188 249.892L238.159 241.816C231.149 245.635 219.096 251.096 201.324 255.534C201.036 255.606 200.747 255.676 200.456 255.746C200.456 255.746 165.517 265.72 149.545 267.431C149.545 267.431 135.713 270.707 125.587 265.72C115.461 260.733 110.185 253.753 110.185 253.753L99.2326 234.075L99.2911 250.39L87.264 250.433L76.2322 250.473L64.2034 250.516L63.7186 115.373L81.2634 115.31L86.7793 115.291L89.2648 115.282C89.2476 115.14 89.2321 114.999 89.2218 114.856L58.0154 114.968L57.9483 96.8684L99.1347 96.7207C99.1742 96.549 99.2103 96.3772 99.2533 96.2072L41.1015 96.415L41.0413 80.1906L165.271 1.32513L290.059 79.3028L290.119 95.5238L248.697 95.6715C249.101 95.814 249.507 95.984 249.911 96.1798L277.284 96.0819L277.349 114.068C277.882 113.752 278.497 113.436 279.097 113.246C279.106 113.237 279.123 113.237 279.14 113.237C279.448 113.132 279.745 113.07 280.027 113.062C280.158 113.053 280.28 113.053 280.404 113.07C281.263 113.175 282.771 113.491 283.946 114.367C285.043 115.172 285.849 116.477 285.559 118.554C285.524 118.825 285.473 119.105 285.392 119.404C285.392 119.404 285.533 119.395 285.77 119.395C286.392 119.412 287.716 119.517 289.067 120.121C290.023 120.551 290.996 121.234 291.759 122.321V122.33C291.996 122.653 292.197 123.013 292.381 123.415C292.46 123.59 292.539 123.784 292.61 123.977C292.61 123.977 292.706 123.977 292.873 123.985C293.196 123.994 293.809 124.037 294.538 124.203C296.09 124.564 298.194 125.465 299.334 127.777C299.64 128.392 299.877 129.109 300.018 129.942V129.94ZM260.762 114.666L263.225 114.657C263.285 114.516 263.345 114.374 263.406 114.231L231.995 114.345L231.933 96.245L244.321 96.2004C244.391 96.1214 244.467 96.0458 244.549 95.9754C244.682 95.8638 244.823 95.7693 244.969 95.6852L154.677 96.008L158.058 108.494C161.524 121.287 155.602 134.512 144.537 140.778L145.574 148.025C147.088 158.61 139.725 168.417 129.128 169.93C118.532 171.443 108.714 164.086 107.203 153.501L103.198 125.486C101.823 125.761 100.334 125.725 98.8425 125.385L99.2 225.03C106.048 224.841 118.733 222.755 130.962 211.505C131.084 211.397 131.204 211.284 131.326 211.171C131.489 211.021 131.653 210.868 131.814 210.71C132.005 210.532 132.191 210.353 132.371 210.173L144.536 228.032L194.844 213.728L207.349 210.173C207.349 210.173 208.869 196.05 225.697 194.484C225.697 194.484 232.969 192.916 233.683 195.908C234.396 198.901 228.406 202.605 228.406 202.605C228.406 202.605 220.848 207.164 224.698 209.158C226.91 210.305 232.557 210.649 238.043 210.305L237.701 114.748L249.728 114.705L260.762 114.666ZM277.167 114.183L276.029 114.187C275.966 114.518 275.893 114.836 275.811 115.121C275.811 115.121 276.383 114.666 277.167 114.183Z" fill="#FBFBFB"/>
<path d="M58.4489 281.547C58.4489 281.547 42.74 275.9 38.8896 261.369C38.8896 261.369 56.1903 263.258 58.4489 281.547ZM58.6878 268.2C73.0474 264.817 72.6865 249.402 72.6865 249.402C61.4226 251.54 58.6878 268.2 58.6878 268.2ZM290.061 79.3034L165.269 1.32739L41.04 80.1877L41.1001 96.419L83.4742 96.261L94.1881 96.2267C96.3556 91.0149 102.631 82.7447 120.834 78.1992C148.794 71.2084 152.74 90.4791 152.74 90.4791L154.476 96.0069L290.123 95.5243L290.061 79.3017V79.3034Z" fill="#026399"/>
<path d="M310.664 172.896C310.664 207.188 282.835 234.981 248.519 234.981C247.976 234.981 247.433 234.981 246.888 234.964C248.615 233.405 249.87 231.845 250.64 230.312C248.212 232.01 245.547 233.492 242.969 234.744C241.864 234.639 240.76 234.517 239.672 234.359C245.573 231.747 252.693 227.789 256.007 222.874C255.874 222.99 255.735 223.103 255.603 223.208C253.088 225.258 249.948 227.097 246.24 228.708C240.707 231.09 235.323 232.369 232.571 232.922C231.624 232.668 230.677 232.396 229.757 232.098C229.862 231.826 230.108 231.617 230.423 231.572C230.643 231.538 246.783 228.99 255.675 220.896C257.779 218.978 259.481 216.744 260.462 214.16C259.224 215.49 257.683 216.832 255.754 218.101C252.053 220.553 246.924 222.778 239.832 224.267C238.209 224.609 236.49 224.906 234.667 225.16C233.377 225.344 232.037 225.502 230.634 225.643C230.16 225.686 229.74 225.344 229.696 224.872C229.653 224.399 229.993 223.987 230.467 223.943C231.949 223.795 233.36 223.628 234.72 223.427C236.552 223.165 238.271 222.857 239.883 222.507C247.17 220.931 252.22 218.575 255.718 216.052C258.226 214.256 259.936 212.372 261.11 210.629C261.189 210.516 261.268 210.402 261.339 210.279C261.347 210.234 261.347 210.182 261.356 210.129C261.382 209.806 261.584 209.542 261.865 209.42C262.645 208.019 263.083 206.765 263.329 205.793C264.022 203.052 263.584 201.133 263.205 200.556C263.154 200.643 263.083 200.775 263.004 200.976C262.698 201.809 262.119 202.615 261.321 203.377C260.049 204.584 258.243 205.706 256.087 206.696C252.763 208.221 248.634 209.447 244.435 210.287C243.032 210.569 241.611 210.804 240.217 210.996C238.446 211.233 236.71 211.4 235.062 211.479C234.316 211.513 233.589 211.532 232.879 211.532C232.537 211.532 232.195 211.532 231.87 211.522C230.17 211.479 228.644 211.312 227.363 211.032C224.419 210.366 223.033 209.569 222.743 208.36C222.34 206.722 224.128 205.225 226.593 203.149C228.197 201.809 230.012 200.276 231.616 198.437C233.23 196.589 233.037 195.888 232.949 195.711C232.458 194.818 229.328 194.793 227.258 195.107L227.207 195.115C219.666 195.807 214.195 198.576 210.934 203.35C208.531 206.889 208.302 210.217 208.302 210.243L208.268 210.847L201.298 212.827L200.999 212.915C191.873 202.106 186.366 188.143 186.366 172.893C186.366 138.61 214.195 110.808 248.519 110.808C253.868 110.808 259.068 111.492 264.022 112.762C262.074 117.545 259.419 122.887 259.419 122.887L256.051 126.461C256.051 126.461 254.999 128.222 256.62 131.48C258.243 134.738 262.628 134.204 262.628 134.204L265.23 132.522C266.581 137.559 269.79 137.489 269.79 137.489L275.287 136.245C276.831 141.282 282.651 141.431 282.651 141.431C282.651 141.431 282.668 141.555 282.741 141.765C283.038 142.666 284.152 145.058 287.763 145.293C292.219 145.592 297.628 141.064 297.628 141.064C298.312 140.047 298.785 138.443 299.11 136.841C306.377 147.011 310.664 159.449 310.664 172.894V172.896ZM32.6592 190.553C24.6337 194.068 20.9793 203.417 24.4979 211.436C28.0147 219.454 37.3741 223.105 45.3996 219.589C53.4268 216.076 57.0812 206.726 53.5626 198.708C50.044 190.688 40.6864 187.038 32.6592 190.553Z" fill="#FFF6A6"/>
<path d="M201.372 256.521C201.358 256.193 201.341 255.865 201.324 255.535C201.035 255.606 200.748 255.678 200.458 255.748L162.429 265.014L150.309 267.346C150.05 267.374 149.797 267.406 149.546 267.432C149.546 267.432 135.712 270.709 125.586 265.722C118.833 262.396 114.242 258.185 111.928 255.746L94.746 224.881C98.3024 225.271 115.264 226.198 131.327 211.172C129.029 213.307 126.112 215.628 122.58 217.741C125.793 215.762 129.076 213.281 132.383 210.19L144.537 228.035L194.846 213.731L194.59 212.956L188.74 195.346H190.554C190.554 195.346 181.538 174.492 189.904 151.318C189.904 151.318 189.783 151.09 189.524 150.707C187.429 147.609 176.247 134.318 146.579 149.376C146.302 149.517 146.026 149.659 145.745 149.804C145.745 149.804 146.313 167.082 129.129 169.931L122.735 170.299C118.231 160.098 107.208 154.425 96.2775 156.683C90.7788 157.82 86.057 160.806 82.712 164.908C79.3636 169.014 77.3938 174.238 77.3938 179.848L81.6687 221.01C81.6687 221.01 82.4216 221.429 83.8018 221.986L83.9514 290.007H198.888C198.888 290.007 199.04 289.499 199.27 288.501C199.906 285.765 201.138 279.333 201.472 269.462C201.498 268.72 201.517 267.963 201.529 267.185C201.591 263.96 201.551 260.4 201.372 256.519V256.521ZM137.851 203.747C137.851 203.747 137.78 203.855 137.643 204.054L137.058 202.732L137.851 203.747ZM93.8797 224.683C91.181 224.41 88.4342 223.806 85.7923 222.715C87.8515 223.404 90.6121 224.125 93.9106 224.51L93.878 224.683H93.8797ZM94.581 224.584C96.4254 224.769 98.433 224.847 100.57 224.756C98.6805 224.893 96.6969 224.915 94.6772 224.756L94.581 224.584Z" fill="#FF751F"/>
<mask id="mask0_2120_782" style="mask-type:luminance" maskUnits="userSpaceOnUse" x="0" y="0" width="337" height="292">
<path d="M0 0H336.131V291.318H0V0Z" fill="white"/>
</mask>
<g mask="url(#mask0_2120_782)">
<path d="M102.049 116.964C102.286 117.372 102.145 117.894 101.738 118.131C101.602 118.21 101.454 118.246 101.308 118.246C101.014 118.246 100.727 118.095 100.569 117.822C100.509 117.721 99.7369 116.437 98.4581 115.55C98.4718 115.707 98.4443 115.866 98.367 116.016L96.6618 119.285C96.5106 119.577 96.2115 119.746 95.9021 119.746C95.7697 119.746 95.6339 119.715 95.5084 119.649C95.089 119.43 94.9257 118.914 95.144 118.495L96.8475 115.228C96.9214 115.085 97.0297 114.977 97.1569 114.898C96.3112 114.63 95.3365 114.616 94.264 115.107C93.8342 115.305 93.3272 115.116 93.1295 114.687C92.9318 114.257 93.1209 113.751 93.5506 113.553C97.6244 111.687 100.89 114.968 102.049 116.964ZM141.652 116.56C141.781 118.004 141.262 119.32 140.064 120.58C139.737 120.922 139.751 121.465 140.095 121.789C140.26 121.945 140.471 122.024 140.684 122.024C140.91 122.024 141.136 121.935 141.305 121.758C142.842 120.142 143.533 118.339 143.357 116.4C142.976 112.173 138.546 108.891 138.357 108.754C137.975 108.474 137.441 108.558 137.162 108.937C136.884 109.319 136.966 109.853 137.346 110.133C137.387 110.162 141.344 113.103 141.654 116.558L141.652 116.56ZM124.981 128.325C124.685 127.959 124.147 127.901 123.779 128.198C123.411 128.493 123.353 129.031 123.65 129.398C123.693 129.453 126.636 132.999 131.71 132.999C134.218 132.999 137.247 132.132 140.703 129.548C141.081 129.264 141.159 128.728 140.875 128.351C140.592 127.973 140.055 127.896 139.677 128.179C130.589 134.974 125.213 128.608 124.982 128.325H124.981ZM139.837 100.861C139.952 100.913 140.071 100.937 140.189 100.937C140.514 100.937 140.825 100.751 140.97 100.435C141.069 100.217 143.469 95.1205 148.926 97.4508C149.363 97.6363 149.865 97.4354 150.051 97.0009C150.236 96.5665 150.033 96.0633 149.6 95.8796C143.988 93.4823 140.48 97.3529 139.409 99.7347C139.216 100.164 139.409 100.667 139.839 100.861H139.837ZM126.055 103.832C126.393 104.16 126.933 104.153 127.263 103.815C127.593 103.478 127.586 102.937 127.248 102.606C127.153 102.515 124.9 100.353 121.625 100.671C118.988 100.928 116.527 102.695 114.308 105.922C114.04 106.312 114.139 106.842 114.528 107.11C114.676 107.212 114.846 107.261 115.013 107.261C115.286 107.261 115.552 107.131 115.719 106.89C117.632 104.109 119.667 102.589 121.771 102.374C124.24 102.125 126.022 103.801 126.055 103.832ZM147.527 102.506C144.775 102.506 144.77 106.781 147.527 106.781C150.286 106.781 150.286 102.506 147.527 102.506ZM122.999 109.629C120.247 109.629 120.242 113.904 122.999 113.904C125.757 113.904 125.757 109.629 122.999 109.629ZM336.218 290.497C336.218 290.969 335.837 291.352 335.364 291.352H0.856008C0.385032 291.352 0 290.971 0 290.497C0 290.023 0.385032 289.641 0.856008 289.641H40.6518L40.5796 268.901C40.5779 268.631 40.6775 268.386 40.834 268.19C39.6737 266.224 38.7094 264.032 38.0614 261.591L37.7417 260.388L38.9827 260.521C39.1666 260.541 43.5464 261.046 48.2613 263.869C49.822 264.803 51.5186 266.069 53.1154 267.75C53.1979 267.73 53.2839 267.716 53.375 267.716L57.423 267.702L57.3989 261.611C56.4071 248.945 53.2444 232.406 44.1652 220.672C42.4944 221.225 40.7652 221.505 39.0343 221.505C37.0129 221.505 34.988 221.129 33.0508 220.372C28.9616 218.777 25.7387 215.687 23.9751 211.669C22.2115 207.651 22.1204 203.186 23.7155 199.101C25.3124 195.015 28.4064 191.795 32.4286 190.034C40.7308 186.4 50.446 190.19 54.0832 198.482C57.6928 206.711 53.9852 216.321 45.8222 220.023C52.2835 228.566 55.7591 239.437 57.5931 249.597L63.0558 249.609L62.5848 116.093L56.8781 116.114L56.8128 97.5006L39.9642 97.5607L39.9023 79.5693L165.266 -0.022583L165.876 0.358642L291.202 78.666L291.264 96.6609L278.429 96.7055L278.486 112.712C280.143 111.936 282.032 112.042 283.595 113.018C285.358 114.117 286.371 116.148 286.371 118.253C286.371 118.391 286.364 118.528 286.357 118.667L288.401 119.186C290.324 119.674 291.887 120.941 292.877 122.608L295.23 123.204C299.176 124.204 301.617 128.498 300.668 132.773L299.862 136.422C307.489 147.113 311.518 159.719 311.518 172.901C311.518 189.711 304.964 205.52 293.064 217.408C287.543 222.925 281.176 227.287 274.259 230.382C274.314 230.516 274.345 230.658 274.345 230.811L274.411 248.823L278.974 248.806L279.04 266.905L291.875 266.859L291.955 289.15L335.364 289.641C335.837 289.641 336.22 290.023 336.22 290.497H336.218ZM45.169 219.07C52.8954 215.687 56.4243 206.655 53.0381 198.939C51.3983 195.201 48.3971 192.323 44.5932 190.837C42.7883 190.133 40.9062 189.783 39.0223 189.783C36.9372 189.783 34.8557 190.214 32.8875 191.078C29.1455 192.716 26.2646 195.712 24.7778 199.514C23.2927 203.315 23.3769 207.47 25.0185 211.209C26.6583 214.947 29.6577 217.825 33.4634 219.309C36.6794 220.562 40.1481 220.693 43.4054 219.714C43.3917 219.697 43.3779 219.676 43.359 219.659C43.0599 219.295 43.1149 218.756 43.4776 218.457C43.842 218.155 44.3818 218.208 44.6826 218.574C44.8252 218.746 44.961 218.924 45.1003 219.098C45.1226 219.086 45.1449 219.077 45.1673 219.068L45.169 219.07ZM233.63 251.249L233.685 267.068L276.759 266.914L276.702 251.095L233.63 251.249ZM138.855 204.68L138.496 205.09C136.862 206.957 135.191 208.702 133.491 210.319L144.896 227.043L194.59 212.955L198.922 211.727C195.012 206.744 191.897 201.213 189.659 195.345C186.94 188.225 185.511 180.615 185.511 172.901C185.511 165.187 186.886 157.707 189.525 150.707C192.64 142.429 197.516 134.835 203.965 128.392C211.848 120.517 221.455 114.985 231.937 112.15L230.85 112.154L230.792 96.8773L155.874 97.1452L158.886 108.273C162.342 121.035 156.823 134.495 145.458 141.23C145.466 141.261 145.478 141.292 145.482 141.326L145.741 143.127L146.422 147.905C146.494 148.396 146.544 148.885 146.578 149.376C146.922 154.221 145.525 158.969 142.577 162.894C139.335 167.213 134.599 170.014 129.249 170.778C128.693 170.857 127.829 170.957 126.89 171.043C125.948 171.13 124.936 171.199 124.078 171.221L138.855 204.68ZM123.318 169.513V169.516C124.814 169.552 127.714 169.271 129.006 169.085C133.907 168.388 138.238 165.822 141.207 161.868C144.177 157.913 145.425 153.041 144.727 148.145L144.045 143.37L143.863 142.109C142.051 143.036 140.143 143.773 138.173 144.307C135.643 144.991 133.073 145.329 130.515 145.329C126.727 145.329 122.956 144.584 119.355 143.102C118.918 142.921 118.707 142.423 118.889 141.987C119.069 141.549 119.568 141.343 120.004 141.52C125.689 143.859 131.818 144.252 137.728 142.653C139.959 142.052 142.109 141.171 144.117 140.035C155.14 133.793 160.534 120.913 157.23 108.718L153.712 95.7181C153.426 94.6672 153.072 93.6317 152.665 92.6203C150.456 92.7027 148.131 92.4554 145.709 91.8681C141.296 90.7931 137.814 88.9196 136.418 88.0919C130.591 94.6586 118.275 93.1595 114.676 92.555C114.052 101 108.474 102.755 106.236 103.123C106.429 105.771 106.673 112.344 104.603 114.185C104.189 114.553 103.702 114.74 103.176 114.74C103.013 114.74 102.848 114.721 102.68 114.687C99.3037 113.967 98.1985 109.212 97.8891 107.287C92.3302 107.625 90.6818 111.177 90.6096 111.335L90.6044 111.35C89.1382 114.783 90.6354 119.394 94.4204 122.337C97.0675 124.394 100.347 125.246 103.195 124.616C103.658 124.516 104.115 124.806 104.216 125.265C104.237 125.363 104.237 125.455 104.228 125.548C104.23 125.57 104.24 125.591 104.242 125.61L108.049 153.383C108.206 154.475 108.464 155.552 108.807 156.592C110.007 156.984 111.176 157.475 112.305 158.055C117.134 160.542 121.027 164.595 123.317 169.511L123.318 169.513ZM106.356 153.621L102.628 126.445C102.191 126.501 101.75 126.529 101.303 126.529C100.866 126.529 100.426 126.501 99.9879 126.45L100.091 155.359C102.367 155.272 104.646 155.497 106.853 156.032H106.857C106.645 155.242 106.475 154.437 106.356 153.621ZM97.7052 125.983H97.7602C96.2166 125.509 94.716 124.734 93.3684 123.685C90.8382 121.719 89.2053 119.086 88.6071 116.416L87.9264 116.411L88.0777 159.075C90.4927 157.559 93.1931 156.445 96.1066 155.844C96.6704 155.727 97.2411 155.632 97.8118 155.557L97.7052 125.983ZM242.637 97.3478L233.075 97.3821L233.126 111.843C237.638 110.718 242.302 110.083 247.056 109.978C245.507 107.16 242.219 100.691 242.637 97.3478ZM265.385 203.663C265.323 204.791 264.96 207.566 263.009 210.795C262.999 210.901 262.987 211.006 262.973 211.113C266.426 210.754 269.644 209.28 272.226 206.844C275.442 203.801 277.214 199.688 277.214 195.263C277.214 186.73 270.466 179.742 262.019 179.344L261.404 200.371C262.053 198.649 263.073 198.663 263.484 198.749C264.769 199.016 265.534 200.993 265.385 203.663ZM261.361 216.331C261.222 216.608 261.074 216.882 260.914 217.152C260.465 217.935 259.943 218.703 259.357 219.446C258.743 222.311 256.926 224.911 254.482 227.222C281.977 224.236 303.214 200.777 303.214 172.901C303.214 162.68 300.378 152.74 295.013 144.11C294.853 144.184 294.688 144.252 294.523 144.314L290.694 145.743C289.893 146.042 289.073 146.184 288.263 146.184C285.69 146.184 283.232 144.742 281.9 142.257C281.879 142.221 281.869 142.183 281.853 142.147C281.714 142.155 281.571 142.166 281.432 142.166C278.514 142.166 275.779 140.303 274.627 137.261C274.593 137.165 274.576 137.069 274.576 136.975H274.572L271.702 137.972C271.124 138.171 270.531 138.271 269.941 138.271C269.106 138.271 268.272 138.072 267.506 137.674C267.506 137.674 267.502 137.674 267.502 137.67C267.047 138.371 266.254 138.833 265.355 138.833H263.205L262.172 174.22C273.379 174.695 282.348 183.951 282.348 195.263C282.348 201.113 280.007 206.546 275.755 210.566C271.81 214.295 266.743 216.314 261.362 216.331H261.361ZM274.247 116.371C274.938 114.371 275.42 112.271 275.586 110.105C275.837 106.902 275.42 104.708 274.378 103.76C273.793 103.226 272.986 103.059 271.908 103.241C269.278 103.691 267.074 105.869 266.292 108.786C265.993 109.908 265.575 111.319 265.022 112.889C265.02 112.932 265.012 112.975 265 113.014C265 113.018 264.996 113.021 264.996 113.023C264.974 113.112 264.938 113.191 264.891 113.263C264.224 115.123 263.374 117.18 262.31 119.227C262.308 119.232 262.304 119.237 262.301 119.244C262.279 119.297 262.253 119.349 262.22 119.397C262.215 119.404 262.212 119.411 262.21 119.418C261.973 119.868 261.727 120.317 261.471 120.762C260.601 122.263 259.614 123.728 258.495 125.071C258.487 125.083 258.475 125.093 258.47 125.105C256.41 127.59 256.072 129.664 257.431 131.449C257.681 131.77 257.957 132.055 258.258 132.292C258.958 132.846 259.793 133.167 260.694 133.221C261.634 133.274 262.569 133.023 263.387 132.51C263.729 132.297 264.051 132.036 264.343 131.732C267.332 128.62 271.946 123.06 274.246 116.371H274.247ZM237.277 135.747L237.614 124.276C237.654 122.859 238.83 121.736 240.255 121.787C241.673 121.827 242.788 123.01 242.745 124.427L242.463 134.064C243.718 133.832 245.007 133.705 246.327 133.705H257.285C256.837 133.363 256.429 132.955 256.07 132.486C254.771 130.772 253.906 127.909 257.182 123.977C258.334 122.598 259.339 121.073 260.218 119.512C256.391 118.679 252.462 118.255 248.515 118.255C218.352 118.255 193.812 142.769 193.812 172.901C193.812 185.947 198.444 198.467 206.884 208.348C207.229 206.878 207.962 204.678 209.517 202.396C211.962 198.809 216.981 194.34 227.017 193.422C228.102 193.257 233.181 192.613 234.438 194.89C235.419 196.667 233.527 198.845 232.901 199.559C231.208 201.503 229.255 203.145 227.691 204.46C226.16 205.751 224.252 207.352 224.399 207.955C224.427 208.071 224.721 208.683 227.739 209.364C229.357 209.73 231.352 209.878 233.561 209.844C234.068 209.838 234.584 209.821 235.112 209.792V209.777L236.081 176.663C229.618 173.059 225.238 166.162 225.238 158.258V154.77C225.238 146.39 230.166 139.137 237.276 135.747H237.277ZM230.371 154.77V158.258C230.371 163.236 232.671 167.687 236.258 170.61L237.099 141.779C233.032 144.671 230.371 149.416 230.371 154.77ZM240.263 209.285C245.973 208.473 251.965 206.84 256.139 204.795L256.883 179.327H246.327C244.543 179.327 242.812 179.102 241.159 178.683L240.263 209.285ZM257.034 174.197L258.069 138.834H246.327C244.938 138.834 243.593 139.013 242.309 139.346L241.313 173.387C242.891 173.91 244.576 174.199 246.327 174.199H257.034V174.197ZM276.169 103.236L276.148 97.2259L254.279 97.3066C256.821 99.3673 259.626 103.362 260.41 111.084C261.479 111.285 262.54 111.517 263.595 111.779C264.039 110.473 264.381 109.3 264.637 108.343C265.593 104.783 268.331 102.118 271.619 101.558C271.996 101.493 272.355 101.461 272.7 101.461C273.826 101.461 274.777 101.809 275.53 102.496C275.767 102.712 275.978 102.96 276.169 103.236ZM252.433 98.069C251.982 97.7702 251.525 97.5247 251.07 97.3169L244.371 97.3392C243.752 99.5802 246.766 106.039 249.009 109.963C252.247 109.985 255.474 110.26 258.654 110.773C257.952 104.686 255.814 100.307 252.433 98.069ZM187.22 172.901C187.22 186.821 192.004 200.395 200.703 211.221H200.706L205.842 209.765C196.969 199.526 192.1 186.487 192.1 172.901C192.1 141.826 217.407 116.546 248.514 116.546C252.744 116.546 256.957 117.019 261.046 117.948C261.046 117.944 261.05 117.944 261.05 117.941C261.825 116.394 262.478 114.845 263.023 113.394C258.296 112.248 253.419 111.671 248.514 111.671C214.715 111.671 187.22 139.138 187.22 172.902V172.901ZM132.222 211.497C127.55 215.74 122.646 219.056 117.579 221.402C111.644 224.151 105.471 225.579 99.2333 225.645C99.0769 225.647 98.9187 225.647 98.7623 225.647C97.6158 225.647 96.5123 225.603 95.4534 225.518L108.974 249.608C116.463 262.952 131.609 270.032 146.663 267.223C164.568 263.878 190.426 258.45 211.908 251.57C229.008 246.098 240.835 240.462 246.886 234.967C248.61 233.402 249.865 231.85 250.638 230.315C248.211 232.01 245.538 233.495 242.963 234.745C236.848 237.718 231.278 239.395 230.789 239.541C230.708 239.564 230.625 239.576 230.544 239.576C230.173 239.576 229.835 239.337 229.723 238.963C229.589 238.511 229.848 238.034 230.302 237.9C230.405 237.869 234.589 236.612 239.667 234.364C245.573 231.749 252.689 227.795 256.003 222.877C255.871 222.992 255.735 223.102 255.599 223.21C253.083 225.259 249.949 227.1 246.233 228.707C240.703 231.098 235.32 232.368 232.564 232.921C231.45 233.146 230.764 233.253 230.673 233.267C230.627 233.272 230.586 233.275 230.543 233.275C230.129 233.275 229.764 232.973 229.699 232.549C229.676 232.391 229.695 232.24 229.75 232.104C229.859 231.829 230.106 231.621 230.417 231.577C230.637 231.542 246.781 228.994 255.668 220.894C257.775 218.976 259.472 216.745 260.457 214.162C259.221 215.492 257.677 216.831 255.75 218.107C252.044 220.557 246.92 222.779 239.826 224.27C238.209 224.61 236.49 224.909 234.661 225.165C233.372 225.347 232.028 225.506 230.629 225.644C230.154 225.687 229.738 225.345 229.694 224.874C229.647 224.404 229.993 223.988 230.464 223.944C231.944 223.801 233.362 223.629 234.713 223.434C236.547 223.171 238.267 222.86 239.878 222.513C247.163 220.937 252.215 218.576 255.716 216.056C258.22 214.255 259.934 212.373 261.105 210.637C261.187 210.52 261.263 210.403 261.335 210.287C261.34 210.238 261.345 210.187 261.349 210.137C261.375 209.809 261.577 209.543 261.856 209.419C262.641 208.023 263.08 206.77 263.325 205.801C264.022 203.06 263.582 201.137 263.205 200.555C263.148 200.643 263.08 200.78 263.002 200.983C262.693 201.814 262.11 202.617 261.314 203.376C260.048 204.592 258.238 205.707 256.08 206.694C252.761 208.222 248.629 209.454 244.43 210.293C243.024 210.573 241.609 210.81 240.213 211.001C238.443 211.24 236.707 211.403 235.06 211.482C234.311 211.52 233.58 211.537 232.874 211.537C232.532 211.537 232.195 211.533 231.866 211.523C230.166 211.48 228.638 211.317 227.363 211.032C224.413 210.369 223.031 209.57 222.737 208.358C222.337 206.728 224.123 205.231 226.589 203.153C228.19 201.809 230.003 200.282 231.614 198.438C233.221 196.59 233.035 195.888 232.942 195.716C232.451 194.823 229.322 194.795 227.255 195.115L227.2 195.12C219.66 195.807 214.188 198.577 210.93 203.354C208.524 206.888 208.299 210.216 208.299 210.247L208.261 210.853L201.294 212.828L200.993 212.914L200.161 213.151L145.913 228.532L148.234 231.937C148.5 232.327 148.399 232.86 148.009 233.126C147.861 233.225 147.692 233.273 147.527 233.273C147.252 233.273 146.984 233.143 146.819 232.901L143.842 228.536C143.842 228.536 143.838 228.532 143.838 228.529L132.222 211.495V211.497ZM239.287 242.285C239.29 242.316 239.299 242.347 239.299 242.382L239.321 248.751L249.067 248.716L249.021 235.837C248.852 235.837 248.682 235.842 248.514 235.842C248.5 235.842 248.488 235.839 248.476 235.839C246.338 237.882 243.488 239.914 239.937 241.925C239.725 242.045 239.503 242.165 239.287 242.284V242.285ZM251.348 248.708L255.697 248.691L260.099 248.677L260.051 234.791C257.18 235.319 254.26 235.652 251.302 235.781L251.348 248.708ZM262.38 248.668L272.126 248.634L272.064 231.312C268.914 232.58 265.663 233.591 262.328 234.333L262.38 248.668ZM299.35 138.692C298.9 140.546 297.875 142.133 296.473 143.222C302.002 152.121 304.924 162.367 304.924 172.901C304.924 187.265 299.513 200.945 289.69 211.422C280.018 221.734 266.987 227.991 252.945 229.083C252.483 230.758 251.539 232.441 250.116 234.111C283.173 233.26 309.803 206.127 309.803 172.901C309.803 160.597 306.193 148.811 299.35 138.69V138.692ZM292.562 134.502C291.96 137.218 290.14 139.384 287.691 140.296L283.859 141.723C283.78 141.754 283.698 141.778 283.615 141.803C285.023 144.056 287.686 145.039 290.092 144.142L293.922 142.714C295.797 142.013 297.253 140.267 297.722 138.153L298.267 135.694L298.996 132.405C299.744 129.02 297.867 125.637 294.807 124.863L293.721 124.586C294.092 125.897 294.154 127.325 293.837 128.756L293.538 130.109L292.562 134.502ZM281.535 132.235C280.891 133.935 279.59 135.235 277.967 135.798L276.105 136.446C276.154 136.511 276.197 136.58 276.224 136.657C277.357 139.652 280.449 141.173 283.263 140.122L287.091 138.695C288.968 137.996 290.422 136.246 290.893 134.133L292.105 128.653L292.165 128.385C292.914 125.002 291.036 121.617 287.976 120.843L286.022 120.347C285.999 120.412 285.977 120.477 285.951 120.544L285.126 122.728L281.535 132.235ZM276.214 115.873C276.214 115.873 276.207 115.875 276.205 115.875C276.078 116.289 275.946 116.699 275.799 117.106C273.455 123.783 268.972 129.328 265.899 132.578C265.95 132.651 265.988 132.73 266.014 132.819L266.234 133.573C266.268 133.688 266.303 133.796 266.346 133.904C266.655 134.751 267.195 135.451 267.896 135.922C268.021 136.01 268.154 136.087 268.286 136.155C269.177 136.617 270.189 136.688 271.136 136.358L277.405 134.184C278.55 133.787 279.471 132.855 279.932 131.631L283.684 121.707L284.351 119.94C285.123 117.896 284.408 115.542 282.685 114.469C281.558 113.768 280.186 113.727 279.009 114.362L276.214 115.873ZM83.6361 95.124C85.2793 89.1308 90.185 84.8601 91.598 83.7284C91.5533 82.3066 91.7681 78.1045 95.2403 73.8784C98.9342 69.3793 104.29 68.4073 105.662 68.227C113.962 60.0959 120.864 62.3661 122.871 63.3123C125.536 61.0095 127.94 60.1698 130.022 60.8086C131.878 61.3804 133.02 63.0015 133.664 64.3306C140.538 51.1079 147.012 48.5355 151.319 48.7639C158.33 49.1366 163.587 56.8899 166.17 64.0215C169.099 72.1148 169.964 82.9471 164.934 87.6042C161.969 90.3501 158.427 91.9849 154.451 92.4794C154.75 93.2625 155.015 94.0593 155.247 94.8664L288.971 94.3873L288.92 79.9351L165.275 2.67347L42.185 80.8177L42.2366 95.2699L83.6395 95.1223L83.6361 95.124ZM88.3579 113.722C88.3974 112.856 88.5504 112.009 88.8306 111.206C84.7379 107.091 82.8161 102.687 83.1238 98.1017C83.1273 98.0398 83.1359 97.9797 83.141 97.9196L59.0903 98.0055L59.1487 113.825L88.3579 113.722ZM85.642 116.435L76.8894 116.466L77.1008 174.657C78.3144 169.106 81.4359 164.182 85.8001 160.693L85.642 116.435ZM73.5393 249.386V249.542L75.0863 249.508L74.6067 116.311L64.8641 116.237L65.335 249.613L67.7707 249.618C68.0973 249.618 68.3878 249.759 68.5975 249.977C69.7784 249.328 71.0847 248.838 72.5252 248.564L73.5152 248.376L73.5393 249.384V249.386ZM59.8071 267.01C69.9864 263.844 71.5505 253.811 71.786 250.497C63.8293 252.817 60.6889 263.273 59.8071 267.01ZM59.6438 251.878L59.6782 261.553C60.9106 258.333 62.8736 254.581 65.8988 251.893L59.6438 251.878ZM57.3749 280.171C56.6409 276.031 55.0354 272.519 52.5791 269.67C52.5688 269.66 52.5568 269.643 52.543 269.631C51.1232 267.989 49.4233 266.565 47.4379 265.368C44.5193 263.613 41.6883 262.805 40.1017 262.456C43.5704 273.036 53.6895 278.49 57.3749 280.171ZM57.5502 282.12C55.3981 281.243 48.1135 277.916 42.8657 271.178L42.931 289.063L56.9726 289.011C57.1084 287.797 57.3594 285.388 57.5502 282.12ZM57.796 269.981H57.4281L54.9701 269.99C56.0599 271.494 57.0379 273.244 57.808 275.287C57.8338 273.615 57.8304 271.832 57.796 269.981ZM83.0929 269.89L59.5097 269.972C59.5905 274.339 59.4753 278.279 59.3017 281.493L59.465 282.824L59.2278 282.738C59.049 285.611 58.829 287.785 58.695 289.006L83.0929 288.919V269.89ZM83.0929 251.787L73.4963 251.821H73.4912C73.4568 251.821 73.4207 251.814 73.3863 251.813C73.1972 253.379 72.7778 255.548 71.8634 257.85C70.533 261.182 67.9185 265.281 62.798 267.68L83.0929 267.609V251.787ZM83.0929 222.623C81.9739 222.153 81.3379 221.806 81.252 221.759L80.8618 221.543L80.8154 221.098L77.1369 185.698L77.3638 249.328L83.0912 249.307V222.623H83.0929ZM84.6554 221.395C87.5637 222.503 92.7634 224.014 99.3037 223.933C108.636 223.811 122.694 220.307 136.844 204.372L121.95 170.644C119.251 164.533 114.043 160.09 107.96 158.143C107.909 158.133 107.86 158.115 107.811 158.095C104.211 156.972 100.309 156.724 96.4487 157.52C93.3736 158.155 90.546 159.405 88.0828 161.121L87.629 161.443C81.9069 165.633 78.2594 172.391 78.2456 179.804L82.4689 220.459C82.7543 220.6 83.1909 220.801 83.7701 221.042C84.0348 221.151 84.3288 221.272 84.6519 221.394H84.6536L84.6554 221.395ZM289.666 288.18L289.599 269.148L279.045 269.188L231.407 269.356L201.509 269.464H201.506C201.495 269.464 201.48 269.464 201.469 269.462C201.495 268.72 201.514 267.963 201.526 267.185L231.4 267.077L231.337 248.977L237.042 248.957L237.018 243.493C230.673 246.74 222.424 250.001 212.431 253.2C208.845 254.349 205.139 255.457 201.37 256.52C182.462 261.857 161.947 266.109 146.975 268.902C144.674 269.33 142.367 269.541 140.084 269.541C126.737 269.541 114.184 262.386 107.479 250.442L93.3719 225.307C89.8034 224.857 86.883 224.031 84.8032 223.286V288.912L199.268 288.501L289.667 288.18H289.666ZM43.9778 216.36C42.3896 217.054 40.7102 217.403 39.0291 217.403C37.5131 217.403 35.9936 217.119 34.5377 216.553C31.4694 215.354 29.051 213.036 27.7274 210.02C26.4056 207.005 26.3368 203.656 27.5349 200.591C28.733 197.524 31.0552 195.108 34.0736 193.786C40.3028 191.059 47.5926 193.902 50.3222 200.126C53.0536 206.349 50.2071 213.632 43.9778 216.36ZM49.2772 200.583C48.0774 197.847 45.8823 195.742 43.0977 194.655C41.7776 194.139 40.3991 193.884 39.0223 193.884C37.4959 193.884 35.9729 194.2 34.5308 194.83C31.7926 196.03 29.6852 198.223 28.5972 201.005C27.5091 203.787 27.5727 206.826 28.7725 209.564C29.9723 212.299 32.1673 214.404 34.9536 215.492C37.7382 216.577 40.7807 216.515 43.5189 215.316C49.1723 212.84 51.7558 206.232 49.2772 200.583ZM44.7496 206.012C45.1071 206.828 45.114 207.73 44.7651 208.55C44.5055 209.167 44.0724 209.672 43.5189 210.017L43.7165 210.508C43.8936 210.946 43.6822 211.444 43.2439 211.621C43.139 211.662 43.0307 211.683 42.9241 211.683C42.5855 211.683 42.2658 211.48 42.13 211.149L41.9392 210.676L41.0574 211.006L41.3359 211.696C41.5129 212.134 41.3015 212.632 40.8632 212.809C40.7583 212.852 40.65 212.873 40.5435 212.873C40.2049 212.873 39.8851 212.67 39.7493 212.337L39.4124 211.504C39.1168 211.458 38.8538 211.259 38.7421 210.958C38.6338 210.673 38.6922 210.369 38.8624 210.144L37.5492 206.897C37.3687 206.859 37.1882 206.809 37.0129 206.74C36.2136 206.43 35.5845 205.827 35.2407 205.042L35.0619 204.635C34.7182 203.85 34.6992 202.98 35.0121 202.181C35.1066 201.943 35.2287 201.719 35.3731 201.513L34.9399 200.44C34.7628 200.002 34.9743 199.504 35.4126 199.327C35.8492 199.149 36.3494 199.362 36.5264 199.799L36.7636 200.388L37.6282 200.011L37.3206 199.252C37.1435 198.812 37.3549 198.316 37.7932 198.139C38.2316 197.96 38.73 198.173 38.9071 198.611L39.2148 199.374C39.5654 199.351 39.9075 199.542 40.057 199.88C40.2117 200.236 40.1052 200.637 39.8215 200.874L41.152 204.163C42.6079 203.859 44.1291 204.603 44.7496 206.014V206.012ZM39.5585 204.785L38.2677 201.596L37.4048 201.973L38.6905 205.154C38.7214 205.143 38.7524 205.138 38.7816 205.125L39.5585 204.785ZM41.2981 209.09L40.198 206.371L39.4692 206.691C39.4228 206.71 39.3781 206.725 39.3334 206.742L40.4146 209.419L41.2981 209.09ZM43.182 206.699C42.9362 206.141 42.3896 205.808 41.8155 205.806L42.8537 208.374C42.9946 208.238 43.1098 208.071 43.1888 207.884C43.3521 207.501 43.3487 207.081 43.182 206.699Z" fill="black"/>
</g>
</svg>
