<svg width="316" height="230" viewBox="0 0 316 230" fill="none" xmlns="http://www.w3.org/2000/svg">
<mask id="mask0_2120_768" style="mask-type:luminance" maskUnits="userSpaceOnUse" x="51" y="0" width="218" height="210">
<path d="M51.974 0.000366211H268.102V209.557H51.974V0.000366211Z" fill="white"/>
</mask>
<g mask="url(#mask0_2120_768)">
<path d="M267.93 5.91588L244.835 191.131C244.679 192.364 244.227 193.74 243.281 194.52C242.269 195.352 240.73 195.542 239.607 195.542H176.117C175.675 199.623 171.416 200.933 165.983 200.883C165.976 200.944 165.973 201.006 165.97 201.064L171.331 200.682L172.216 201.064C169.611 203.926 166.126 205.261 162.417 205.677C156.847 214.337 139.703 205.613 139.703 205.613L86.9158 196.409L64.7124 192.541C58.4315 191.446 53.7405 186.164 53.3989 179.803L52.2606 158.543L72.4667 158.484L92.8305 158.421V165.335L95.6721 166.019L122.254 168.495L142.97 4.43413C143.292 1.88742 145.138 0.000366211 147.312 0.000366211H262.983C265.668 0.000366211 268.326 2.77188 267.93 5.91588ZM59.2807 79.8639C63.4247 81.0109 67.4604 79.8426 69.0487 77.2303L69.1571 77.3681C70.2411 78.7448 69.8584 81.1471 69.1965 82.5895L72.7246 98.9921C77.4813 99.5468 81.8356 101.739 85.293 105.087C85.4162 105.208 85.5329 105.324 85.6544 105.439C105.407 110.979 107.025 97.448 107.025 97.448L104.289 81.6378L106.744 79.7195C117.623 71.2081 119.544 55.4996 111.018 44.6301L101.163 32.0443C92.6433 21.1814 76.913 19.2631 66.0314 27.7746L63.5775 29.6928C52.6975 38.2043 50.784 53.921 59.3037 64.7904L61.1006 67.0828C56.9861 66.5347 53.2757 68.2298 52.438 71.2672C51.4771 74.7 54.5453 78.5512 59.2823 79.8639H59.2807Z" fill="#FBFBFB"/>
</g>
<path d="M234.995 137.194C236.11 140.125 234.639 143.405 231.705 144.521L223.461 147.655L231.842 169.649C234.108 175.6 231.116 182.262 225.16 184.53L111.362 227.803C105.403 230.067 98.7377 227.077 96.4678 221.127L86.9905 196.249L139.776 205.452C139.776 205.452 156.92 214.177 162.49 205.517C166.2 205.102 169.686 203.767 172.289 200.905H166.044C166.046 200.846 166.049 200.785 166.056 200.723C171.489 200.772 175.748 199.462 176.19 195.383H175.758C175.868 195.178 175.947 194.968 176.006 194.756C176.773 194.216 177.488 193.567 178.141 192.784C178.141 192.784 179.117 186.612 172.289 189.212C168.722 190.569 162.145 189.536 156.858 187.544L149.575 183.127C148.947 182.334 148.673 181.535 148.878 180.766C150.179 175.894 162.209 179.791 166.76 182.39C171.313 184.989 171.313 166.798 151.155 171.022L95.745 165.86L92.9035 165.175V158.384H97.8951L94.2537 130.042L162.534 104.076H162.538L190.46 93.4573C194.736 91.8345 199.379 92.9158 202.498 95.8547H202.501C203.727 97.0116 204.716 98.4539 205.356 100.133L213.735 122.123L221.977 118.988C224.91 117.873 228.192 119.344 229.309 122.275L234.995 137.198V137.194ZM252.419 41.0841H192.822C191.309 41.0841 190.032 42.2081 189.838 43.7063L189.57 45.7657C190.598 44.873 192.096 44.6186 193.404 45.2488C195.017 46.0282 195.787 47.8972 195.189 49.5824L193.778 53.5682H251.578C253.094 53.5682 254.37 52.4475 254.566 50.9493L255.408 44.4825C255.641 42.684 254.239 41.0857 252.42 41.0857L252.419 41.0841Z" fill="#026399"/>
<path d="M94.1802 130.201L138.516 113.342C134.404 78.2361 107.026 95.7759 107.026 95.7759V98.4572C107.026 98.4572 103.667 111.215 85.8937 105.585L85.9463 105.748C85.8494 105.646 85.7541 105.541 85.6556 105.441C85.5357 105.324 85.4174 105.208 85.2975 105.091C81.8384 101.742 77.4808 99.55 72.7241 98.9905C72.7077 98.9872 72.688 98.9872 72.6732 98.9839C71.8897 98.8904 71.0964 98.8444 70.2932 98.8444C66.6863 98.8444 63.2501 99.783 60.1869 101.463C53.694 105.029 48.8782 111.947 47.6759 120.377L42.2178 158.544H97.8216L94.1802 130.202V130.201Z" fill="#FF751F"/>
<path d="M315.33 161.838V191.073C315.33 193.583 301.645 195.62 284.767 195.62C269.882 195.62 257.485 194.034 254.76 191.936C254.397 191.66 254.204 191.368 254.204 191.073H254.924L254.702 182.149C254.377 181.883 254.204 181.606 254.204 181.327H254.682L254.457 172.171C254.292 171.98 254.204 171.782 254.204 171.583H254.441L254.204 161.838C254.204 160.945 255.934 160.11 258.925 159.409C264.342 158.136 273.892 157.291 284.768 157.291C301.645 157.291 315.33 159.327 315.33 161.838ZM256.882 28.0718L257.813 19.0648C258.114 16.1653 255.837 13.6415 252.918 13.6415H161.045C158.524 13.6415 156.41 15.5466 156.152 18.0523L155.219 27.061C154.918 29.9605 157.196 32.4826 160.113 32.4826H251.987C254.508 32.4826 256.622 30.5775 256.882 28.0718Z" fill="#FFF6A6"/>
<mask id="mask1_2120_768" style="mask-type:luminance" maskUnits="userSpaceOnUse" x="0" y="0" width="316" height="230">
<path d="M0 0H315.836V229.721H0V0Z" fill="white"/>
</mask>
<g mask="url(#mask1_2120_768)">
<path d="M66.0076 72.3403C66.3016 72.5471 66.3739 72.9507 66.1669 73.2445C65.9633 73.5382 65.5592 73.6104 65.2652 73.4069C65.1946 73.3593 64.2255 72.7309 62.5945 72.7998V74.8739C62.5945 75.2316 62.3038 75.5237 61.9441 75.5237C61.5844 75.5237 61.2936 75.2333 61.2936 74.8739V72.9901C60.4937 73.1903 59.592 73.5612 58.6032 74.1929C58.4948 74.2618 58.3733 74.2946 58.2533 74.2946C58.0398 74.2946 57.8296 74.1896 57.7064 73.996C57.5126 73.6924 57.5996 73.292 57.9035 73.0984C62.6487 70.0644 65.8729 72.2468 66.0076 72.3403ZM92.4454 54.1507C92.3091 54.4838 92.47 54.8629 92.8035 54.9974C95.9472 56.2675 99.6002 57.9216 100.009 58.3597C100.188 58.7059 99.7644 60.3271 99.1206 61.7613C98.9727 62.0878 99.1189 62.4735 99.4458 62.6211C99.5328 62.6589 99.6232 62.6769 99.7119 62.6769C99.9599 62.6769 100.196 62.5358 100.306 62.2946C100.794 61.2083 101.844 58.5746 101.034 57.5622C100.351 56.7089 95.3921 54.6413 93.2913 53.793C92.9595 53.6568 92.5801 53.8176 92.4454 54.1507ZM96.5796 71.8283C94.2768 75.0232 91.4566 73.2248 91.138 73.0065C90.844 72.8031 90.4399 72.8753 90.2346 73.1673C90.0293 73.4627 90.0999 73.868 90.3939 74.0731C91.0608 74.5391 92.1514 74.9986 93.3784 74.9986C94.763 74.9986 96.3201 74.4128 97.6357 72.5881C97.846 72.296 97.7803 71.8907 97.4879 71.6807C97.1955 71.4706 96.7898 71.5363 96.5796 71.8283ZM90.7668 44.5021C90.7832 44.5021 90.7996 44.5021 90.816 44.4988C91.1741 44.4726 91.4418 44.1608 91.4156 43.8047C91.4139 43.7801 91.2628 41.4434 92.7033 40.1635C93.6395 39.3316 95.0816 39.0936 96.9853 39.4563C97.3368 39.5219 97.6784 39.2922 97.7458 38.9394C97.8131 38.5866 97.5815 38.2469 97.2284 38.1796C94.901 37.7366 93.086 38.0795 91.8311 39.1987C89.9127 40.9134 90.1098 43.7817 90.1196 43.9015C90.1459 44.2428 90.4301 44.5021 90.7668 44.5021ZM79.5386 51.6253C79.8852 51.7189 80.2432 51.5187 80.3385 51.1724C80.4354 50.8279 80.2334 50.4685 79.8885 50.3717C79.7521 50.3356 76.5492 49.4692 74.2497 51.2135C72.8043 52.3096 72.0718 54.1491 72.0718 56.6827C72.0718 57.0404 72.3641 57.3325 72.7222 57.3325C73.0819 57.3325 73.3726 57.0404 73.3726 56.6827C73.3726 54.5806 73.9311 53.0907 75.0316 52.2522C76.8071 50.8984 79.5008 51.6122 79.5402 51.6237L79.5386 51.6253ZM97.2695 47.7495C100.408 47.7495 100.413 42.8776 97.2695 42.8776C94.1273 42.8776 94.1273 47.7495 97.2695 47.7495ZM78.4118 56.5202C75.2746 56.5202 75.2697 61.3921 78.4118 61.3921C81.5556 61.3921 81.5556 56.5202 78.4118 56.5202ZM206.941 123.242C207.04 123.501 207.288 123.66 207.549 123.66C207.626 123.66 207.705 123.645 207.781 123.617C208.116 123.489 208.285 123.114 208.157 122.779L206.777 119.157C206.649 118.821 206.273 118.654 205.938 118.782C205.601 118.908 205.433 119.284 205.562 119.618L206.941 123.24V123.242ZM196.986 190.38L193.361 191.758C193.026 191.886 192.858 192.262 192.985 192.597C193.083 192.856 193.331 193.015 193.593 193.015C193.67 193.015 193.749 193.002 193.824 192.973L197.449 191.594C197.784 191.466 197.952 191.092 197.825 190.756C197.697 190.421 197.321 190.254 196.986 190.38ZM204.236 187.623L200.611 189.001C200.276 189.129 200.107 189.505 200.233 189.84C200.333 190.099 200.58 190.258 200.841 190.258C200.918 190.258 200.997 190.245 201.073 190.216L204.698 188.837C205.034 188.709 205.202 188.335 205.075 187.999C204.947 187.664 204.571 187.497 204.236 187.623ZM200.184 105.507L201.422 108.756C201.521 109.015 201.769 109.174 202.03 109.174C202.107 109.174 202.186 109.161 202.262 109.131C202.597 109.003 202.766 108.628 202.638 108.293L201.399 105.044C201.349 104.913 201.296 104.781 201.242 104.652C201.101 104.322 200.718 104.168 200.388 104.309C200.058 104.448 199.903 104.831 200.044 105.159C200.092 105.274 200.14 105.39 200.184 105.507ZM211.484 184.866L207.861 186.245C207.524 186.373 207.357 186.747 207.485 187.083C207.583 187.343 207.83 187.502 208.093 187.502C208.17 187.502 208.247 187.489 208.323 187.459L211.948 186.081C212.283 185.953 212.452 185.579 212.324 185.242C212.196 184.907 211.819 184.74 211.484 184.866ZM204.182 115.999C204.28 116.258 204.528 116.417 204.79 116.417C204.867 116.417 204.946 116.404 205.021 116.374C205.356 116.246 205.525 115.872 205.397 115.536L204.018 111.914C203.891 111.58 203.515 111.412 203.178 111.539C202.843 111.667 202.676 112.042 202.802 112.377L204.182 115.999ZM195.104 100.042C196.212 100.561 197.204 101.266 198.05 102.143C198.178 102.274 198.348 102.341 198.518 102.341C198.681 102.341 198.844 102.281 198.97 102.157C199.228 101.908 199.236 101.498 198.987 101.239C198.029 100.249 196.907 99.4499 195.654 98.8658C195.33 98.7132 194.943 98.8527 194.79 99.1792C194.637 99.5041 194.778 99.8897 195.104 100.042ZM225.142 172.827C225.142 173.176 225.122 173.529 225.086 173.876C225.048 174.232 225.306 174.552 225.664 174.589C225.687 174.593 225.71 174.594 225.735 174.594C226.062 174.594 226.344 174.346 226.38 174.013C226.421 173.621 226.443 173.222 226.443 172.827C226.443 171.852 226.315 170.881 226.062 169.934C225.968 169.589 225.612 169.381 225.265 169.476C224.918 169.568 224.712 169.924 224.805 170.272C225.029 171.106 225.142 171.967 225.142 172.827ZM218.734 182.11L215.109 183.488C214.773 183.616 214.605 183.99 214.733 184.327C214.832 184.586 215.078 184.745 215.341 184.745C215.418 184.745 215.495 184.732 215.573 184.702L219.235 183.309C219.567 183.18 219.717 182.81 219.587 182.477C219.459 182.144 219.068 181.983 218.733 182.11H218.734ZM224.928 177.059C224.606 176.895 224.216 177.023 224.053 177.343C223.498 178.432 222.755 179.397 221.85 180.213C221.584 180.452 221.563 180.864 221.803 181.13C221.931 181.273 222.108 181.345 222.286 181.345C222.442 181.345 222.596 181.289 222.721 181.178C223.746 180.257 224.583 179.164 225.211 177.932C225.375 177.614 225.247 177.221 224.927 177.059H224.928ZM223.498 166.695C223.596 166.954 223.843 167.113 224.105 167.113C224.181 167.113 224.26 167.1 224.337 167.071C224.672 166.943 224.84 166.568 224.713 166.232L223.333 162.611C223.205 162.276 222.829 162.108 222.494 162.235C222.157 162.363 221.99 162.739 222.118 163.073L223.498 166.695ZM221.954 158.991L220.574 155.369C220.446 155.033 220.07 154.865 219.735 154.993C219.4 155.121 219.23 155.496 219.359 155.832L220.738 159.453C220.837 159.713 221.083 159.872 221.346 159.872C221.423 159.872 221.5 159.857 221.578 159.829C221.913 159.701 222.08 159.325 221.954 158.991ZM133.206 118.96L129.581 120.339C129.246 120.467 129.077 120.841 129.205 121.177C129.303 121.437 129.55 121.596 129.812 121.596C129.89 121.596 129.968 121.581 130.044 121.553L133.669 120.175C134.004 120.047 134.172 119.671 134.045 119.336C133.917 119.002 133.541 118.832 133.206 118.96ZM98.8643 209.183C98.7362 208.847 98.3617 208.679 98.025 208.806C97.6899 208.934 97.5208 209.31 97.6489 209.644L99.0286 213.266C99.1271 213.525 99.3735 213.684 99.6363 213.684C99.7119 213.684 99.7907 213.671 99.8679 213.642C100.203 213.514 100.371 213.139 100.244 212.803L98.8643 209.182V209.183ZM187.816 99.5665C187.878 99.5665 187.942 99.5566 188.005 99.5369C189.169 99.1825 190.373 99.0446 191.602 99.1316C191.963 99.1529 192.27 98.8871 192.297 98.5294C192.321 98.1717 192.052 97.8599 191.694 97.8353C190.308 97.7368 188.943 97.8944 187.627 98.2947C187.284 98.3998 187.09 98.7624 187.193 99.1054C187.279 99.3843 187.537 99.5665 187.816 99.5665ZM111.457 127.231L107.832 128.607C107.497 128.735 107.328 129.111 107.456 129.446C107.555 129.705 107.801 129.864 108.064 129.864C108.14 129.864 108.218 129.851 108.294 129.822L111.919 128.443C112.256 128.317 112.425 127.941 112.297 127.606C112.169 127.27 111.792 127.103 111.457 127.231ZM101.622 216.402C101.482 216.07 101.101 215.914 100.77 216.055C100.438 216.193 100.283 216.576 100.423 216.907C100.96 218.182 101.717 219.331 102.673 220.322C102.8 220.455 102.971 220.52 103.141 220.52C103.304 220.52 103.467 220.461 103.591 220.34C103.851 220.09 103.859 219.68 103.61 219.421C102.765 218.545 102.097 217.529 101.62 216.402H101.622ZM96.1049 201.94C95.9768 201.605 95.6007 201.438 95.2656 201.564C94.9305 201.692 94.763 202.068 94.8895 202.403L96.2708 206.024C96.3694 206.284 96.6157 206.443 96.8769 206.443C96.9541 206.443 97.0329 206.43 97.1085 206.4C97.4452 206.272 97.6127 205.896 97.4846 205.562L96.1049 201.94ZM104.209 129.987L100.584 131.366C100.247 131.494 100.08 131.868 100.208 132.204C100.306 132.464 100.553 132.623 100.816 132.623C100.891 132.623 100.97 132.61 101.046 132.58L104.671 131.202C105.007 131.074 105.175 130.7 105.048 130.363C104.92 130.028 104.546 129.861 104.209 129.987ZM138.991 212.435L135.366 213.812C135.031 213.94 134.863 214.316 134.99 214.652C135.088 214.91 135.336 215.071 135.597 215.071C135.675 215.071 135.753 215.056 135.829 215.028L139.454 213.65C139.789 213.522 139.958 213.146 139.83 212.811C139.702 212.477 139.327 212.309 138.991 212.435ZM110.056 222.445C108.841 222.355 107.663 222.046 106.555 221.526C106.231 221.374 105.842 221.513 105.691 221.84C105.538 222.163 105.677 222.55 106.003 222.703C107.254 223.29 108.586 223.638 109.961 223.74C109.978 223.741 109.994 223.741 110.009 223.741C110.347 223.741 110.631 223.482 110.658 223.139C110.684 222.781 110.414 222.47 110.056 222.445ZM131.742 215.192L128.117 216.569C127.782 216.697 127.615 217.073 127.741 217.407C127.84 217.667 128.088 217.826 128.349 217.826C128.426 217.826 128.505 217.813 128.581 217.783L132.206 216.405C132.541 216.279 132.708 215.903 132.582 215.566C132.454 215.232 132.077 215.064 131.742 215.191V215.192ZM117.244 220.706L114.315 221.818C114.099 221.902 113.875 221.977 113.652 222.045C113.309 222.15 113.115 222.512 113.22 222.855C113.305 223.136 113.561 223.316 113.841 223.316C113.903 223.316 113.967 223.308 114.031 223.289C114.283 223.211 114.534 223.126 114.777 223.033L117.706 221.92C118.041 221.792 118.21 221.416 118.082 221.081C117.954 220.745 117.577 220.578 117.242 220.706H117.244ZM124.492 217.949L120.867 219.326C120.532 219.454 120.363 219.829 120.491 220.164C120.59 220.423 120.838 220.583 121.099 220.583C121.176 220.583 121.255 220.57 121.331 220.54L124.956 219.162C125.291 219.035 125.458 218.659 125.332 218.323C125.204 217.988 124.827 217.819 124.492 217.947V217.949ZM182.488 195.895L178.863 197.273C178.528 197.4 178.358 197.775 178.486 198.11C178.585 198.371 178.833 198.53 179.094 198.53C179.171 198.53 179.25 198.516 179.326 198.486L182.951 197.109C183.286 196.981 183.455 196.606 183.327 196.271C183.199 195.934 182.824 195.767 182.488 195.893V195.895ZM169.453 105.177L165.828 106.555C165.493 106.683 165.323 107.057 165.452 107.394C165.55 107.653 165.798 107.812 166.059 107.812C166.136 107.812 166.215 107.799 166.291 107.769L169.916 106.391C170.251 106.265 170.42 105.889 170.292 105.554C170.164 105.218 169.788 105.05 169.453 105.177ZM176.703 102.42L173.078 103.798C172.743 103.926 172.573 104.301 172.702 104.637C172.8 104.896 173.046 105.055 173.309 105.055C173.386 105.055 173.465 105.041 173.541 105.013L177.166 103.634C177.501 103.506 177.669 103.132 177.542 102.796C177.414 102.461 177.038 102.294 176.703 102.42ZM146.241 209.677L142.616 211.055C142.281 211.183 142.113 211.558 142.24 211.894C142.338 212.153 142.586 212.312 142.847 212.312C142.925 212.312 143.003 212.298 143.079 212.27L146.704 210.891C147.039 210.763 147.208 210.389 147.08 210.053C146.952 209.718 146.577 209.551 146.241 209.677ZM183.951 99.6633L180.326 101.042C179.991 101.17 179.823 101.544 179.95 101.88C180.048 102.139 180.297 102.299 180.558 102.299C180.635 102.299 180.714 102.284 180.789 102.256L184.414 100.878C184.751 100.75 184.919 100.375 184.79 100.039C184.662 99.7043 184.288 99.5353 183.951 99.6633ZM189.738 193.137L186.113 194.515C185.778 194.643 185.608 195.019 185.737 195.354C185.835 195.613 186.081 195.772 186.344 195.772C186.42 195.772 186.499 195.759 186.576 195.729L190.201 194.351C190.536 194.223 190.705 193.849 190.577 193.512C190.449 193.178 190.074 193.01 189.738 193.137ZM147.706 113.447L144.081 114.825C143.744 114.953 143.577 115.327 143.703 115.664C143.802 115.922 144.05 116.082 144.311 116.082C144.388 116.082 144.467 116.068 144.542 116.04L148.167 114.661C148.503 114.533 148.672 114.158 148.544 113.823C148.417 113.488 148.039 113.319 147.706 113.447ZM140.456 116.204L136.831 117.582C136.496 117.71 136.327 118.084 136.455 118.421C136.553 118.678 136.801 118.839 137.062 118.839C137.14 118.839 137.218 118.824 137.294 118.796L140.917 117.418C141.254 117.29 141.422 116.914 141.294 116.58C141.167 116.243 140.789 116.076 140.454 116.204H140.456ZM162.204 107.934L158.579 109.312C158.244 109.44 158.075 109.814 158.203 110.15C158.302 110.41 158.548 110.569 158.811 110.569C158.886 110.569 158.965 110.556 159.041 110.526L162.666 109.148C163.003 109.02 163.17 108.646 163.042 108.309C162.916 107.975 162.539 107.807 162.204 107.934ZM125.957 121.717L122.332 123.096C121.996 123.224 121.828 123.598 121.956 123.934C122.055 124.193 122.301 124.353 122.564 124.353C122.641 124.353 122.718 124.338 122.796 124.31L126.421 122.932C126.756 122.804 126.923 122.428 126.797 122.093C126.669 121.758 126.293 121.589 125.957 121.717ZM154.954 110.69L151.331 112.069C150.994 112.197 150.827 112.572 150.955 112.907C151.053 113.166 151.3 113.326 151.561 113.326C151.638 113.326 151.717 113.312 151.792 113.283L155.417 111.905C155.753 111.777 155.922 111.402 155.794 111.066C155.665 110.731 155.289 110.564 154.954 110.69ZM118.707 124.474L115.082 125.852C114.747 125.98 114.578 126.356 114.706 126.691C114.805 126.95 115.053 127.109 115.314 127.109C115.391 127.109 115.47 127.096 115.546 127.067L119.171 125.688C119.506 125.56 119.675 125.186 119.547 124.85C119.419 124.515 119.043 124.348 118.707 124.474ZM218.588 140C221.228 140 223.373 137.856 223.373 135.22C223.373 132.583 221.228 130.44 218.588 130.44C215.95 130.44 213.804 132.583 213.804 135.22C213.804 137.856 215.95 140 218.588 140ZM315.981 161.839V191.074C315.981 192.123 314.995 193.663 306.476 194.932C300.673 195.795 292.963 196.271 284.768 196.271C282.871 196.271 281.004 196.245 279.175 196.195H197.306C197.173 196.195 197.048 196.154 196.945 196.085L111.52 228.569C110.109 229.106 108.642 229.373 107.177 229.373C105.48 229.373 103.787 229.014 102.192 228.3C99.2207 226.967 96.9459 224.559 95.7863 221.518L86.5603 197.301C86.5225 197.203 86.5143 197.103 86.5242 197.004L81.8759 196.194H0.54224C0.182531 196.194 -0.108193 195.903 -0.108193 195.544C-0.108193 195.186 0.182531 194.894 0.54224 194.894H74.4222L64.6 193.183C57.9807 192.029 53.1057 186.54 52.7477 179.837L51.6423 159.191H50.0195C49.6598 159.191 49.369 158.9 49.369 158.541C49.369 158.182 49.6598 157.891 50.0195 157.891H97.0806L92.3222 120.856C90.7553 108.677 81.2862 99.4926 70.2929 99.4926C67.3233 99.4926 63.5636 100.462 60.4806 102.025C60.2424 102.144 59.9665 102.103 59.7743 101.946C59.6856 101.99 59.5887 102.016 59.4836 102.016C59.4524 102.016 59.4212 102.015 59.3883 102.01C52.0118 100.914 47.1303 96.4717 45.2693 89.1614C44.361 85.594 42.9041 81.3588 41.3635 76.8742C36.5476 62.864 31.0896 46.9865 36.7973 37.7169C39.1181 33.951 43.1735 31.6094 48.8599 30.7545C49.4676 29.3974 51.9116 24.3385 56.7242 19.2467C61.8209 13.8547 70.628 7.45671 83.6235 7.63228C90.4268 7.72253 95.8224 9.94598 99.6577 14.2435C106.937 22.3989 106.233 35.1948 106.065 37.2509L111.531 44.2248C120.258 55.3601 118.289 71.5133 107.144 80.2315L104.994 81.9118L107.681 97.4283L107.671 97.5235C107.648 97.7139 107.06 102.244 102.757 105.132C100.481 106.662 97.6324 107.426 94.244 107.426C92.2138 107.426 89.9866 107.147 87.5737 106.598C90.8111 110.488 92.9316 115.398 93.6116 120.69L94.7186 129.298L161.979 103.72L172.399 80.9535H154.545C153.45 80.9535 152.402 80.4875 151.669 79.6719C150.938 78.858 150.585 77.7668 150.703 76.6789L154.235 44.041C154.448 42.0768 156.099 40.5951 158.077 40.5951H183.846C184.942 40.5951 185.989 41.0627 186.722 41.8766C187.453 42.6905 187.806 43.7834 187.688 44.8697L187.307 48.3829L188.015 46.8388C188.483 45.8132 189.327 45.0387 190.388 44.6547C191.451 44.2724 192.594 44.3315 193.611 44.8221C195.527 45.7443 196.439 47.953 195.73 49.9582L191.63 61.5349L192.07 61.1115C193.23 60.0022 194.754 59.4131 196.309 59.4148C196.421 59.3262 196.559 59.272 196.712 59.272H201.741C203.623 59.272 205.41 60.063 206.682 61.4003C210.349 62.0485 212.923 65.3172 212.675 69.0388L212.522 71.3115C214.016 72.4781 214.492 74.59 213.59 76.2949L203.224 95.8908C204.358 97.0493 205.276 98.449 205.888 100.055L214.035 121.44L221.671 118.537C223.253 117.937 224.973 117.987 226.515 118.678C228.059 119.369 229.24 120.619 229.843 122.2L235.527 137.122C236.13 138.701 236.079 140.42 235.388 141.963C234.695 143.504 233.443 144.685 231.861 145.287L224.12 148.231L232.374 169.571C233.533 172.615 233.437 175.925 232.104 178.893C230.771 181.862 228.36 184.135 225.318 185.291L200.072 194.892H241.721C242.888 194.131 243.742 192.761 243.95 191.11L267.326 5.97003C267.724 2.82603 265.667 0.000366211 262.982 0.000366211H273.956C276.641 0.000366211 278.697 2.82603 278.3 5.97003L259.012 158.72C260.124 158.467 261.458 158.219 263.059 157.982C268.864 157.118 276.572 156.643 284.767 156.643C292.963 156.643 300.671 157.118 306.474 157.982C314.995 159.25 315.981 160.791 315.981 161.839ZM86.0643 104.885C93.0055 106.791 98.3765 106.512 102.033 104.058C105.538 101.703 106.269 98.0601 106.367 97.4562L103.828 82.7995C99.4441 85.9517 94.3047 87.6091 88.8861 87.6091C88.827 87.6091 88.7678 87.6091 88.7071 87.6074C88.349 87.6058 88.0583 87.3121 88.0616 86.9527C88.0632 86.5966 88.3539 86.3078 88.712 86.3078C88.7613 86.3095 88.827 86.3078 88.8845 86.3078C94.3688 86.3078 99.5525 84.5192 103.887 81.1291L106.343 79.2092C116.924 70.9324 118.791 55.5996 110.508 45.0288L105.879 39.1215V39.1297L104.914 37.8892L104.68 37.5938C101.972 34.1577 95.1227 26.3076 91.4024 25.4199C91.2776 28.1585 90.0063 37.5758 78.7502 44.4086C71.717 48.6766 69.0265 54.5774 68.0098 58.7748C66.7582 63.9355 67.5582 68.4628 68.905 70.6617L70.5032 73.2658L61.6386 67.1813C61.5154 67.1583 61.3905 67.1337 61.269 67.114L61.0095 66.9712L61.1031 67.0894C56.9837 66.5364 53.2766 68.2282 52.4356 71.2688C51.4797 74.7016 54.5446 78.5512 59.2816 79.8672C63.534 81.047 67.6928 79.7786 69.1826 77.0153L72.7222 81.0684L72.6729 98.3325C77.492 98.8773 82.0648 101.06 85.7489 104.622C85.8327 104.704 85.9132 104.791 85.9953 104.873C86.0183 104.876 86.0413 104.878 86.0626 104.885H86.0643ZM191.321 131.472C190.065 131.95 189.069 132.889 188.519 134.114C187.969 135.339 187.929 136.705 188.407 137.961L194.094 152.883C195.081 155.473 197.993 156.779 200.588 155.793L231.4 144.076C233.995 143.09 235.301 140.179 234.314 137.588L228.629 122.666C228.151 121.41 227.211 120.416 225.984 119.866C225.326 119.573 224.628 119.423 223.926 119.423C223.322 119.423 222.716 119.533 222.134 119.755L191.321 131.472ZM199.885 60.5749C200.677 61.1443 201.326 61.8975 201.776 62.7984C202.518 64.2883 202.625 65.9735 202.073 67.5439L200.289 72.6258H201.227C203.339 72.6258 205.231 71.4509 206.168 69.5606L206.682 68.5235C207.508 66.8547 207.439 64.9004 206.496 63.2956C205.511 61.6169 203.689 60.5749 201.741 60.5749H199.885ZM190.666 64.2621L188.723 69.7526C188.32 70.8881 188.273 72.104 188.588 73.2674L189.002 74.7984C190.143 79.0172 194.256 81.6378 198.566 80.8928C200.108 80.627 201.508 79.7409 202.406 78.4593L206.823 72.1647C207.84 70.7158 209.65 70.1497 211.264 70.6567L211.378 68.9551C211.547 66.4067 210.103 64.1177 207.873 63.1183C208.786 65.0021 208.787 67.1993 207.848 69.0979L207.334 70.1366C206.176 72.4732 203.837 73.9254 201.227 73.9254H199.832L199.777 74.0863C199.499 74.8755 198.926 75.4974 198.162 75.8388C197.768 76.016 197.351 76.1029 196.933 76.1029C196.544 76.1029 196.152 76.0258 195.779 75.8716C194.179 75.2086 193.182 73.6038 193.295 71.8792L193.57 67.7392C193.593 67.3798 193.9 67.1107 194.261 67.1337C194.619 67.1566 194.89 67.4668 194.867 67.8245L194.593 71.9645C194.516 73.1345 195.192 74.2224 196.276 74.6704C196.717 74.8526 197.198 74.846 197.632 74.6524C198.065 74.4571 198.392 74.1043 198.55 73.6547L200.846 67.114C201.281 65.8767 201.197 64.5492 200.613 63.376C200.028 62.2043 199.018 61.3379 197.766 60.9392C196.086 60.4043 194.248 60.8293 192.973 62.0501L190.667 64.2604L190.666 64.2621ZM163.712 103.065L190.156 93.0093C194.386 91.4012 198.962 92.3103 202.234 94.9883L212.442 75.6911C213.091 74.4653 212.679 72.9245 211.504 72.1844C210.297 71.423 208.709 71.7414 207.887 72.9097L203.471 79.2059C202.375 80.7681 200.669 81.8494 198.788 82.1743C198.221 82.2712 197.656 82.3187 197.099 82.3187C192.775 82.3187 188.915 79.4521 187.747 75.1381L187.333 73.6055C186.95 72.1861 187.006 70.7043 187.496 69.3177L194.504 49.5266C194.992 48.1482 194.366 46.6287 193.047 45.9937C192.348 45.6573 191.561 45.6163 190.832 45.8805C190.101 46.143 189.521 46.6763 189.199 47.3819L163.714 103.063L163.712 103.065ZM139.911 204.991L139.998 205.035C140.155 205.115 155.046 212.572 160.997 206.43C160.526 206.454 160.049 206.472 159.56 206.472C157.379 206.472 155.02 206.223 152.5 205.722C145.748 204.382 140.298 201.761 140.068 201.651C139.746 201.494 139.612 201.107 139.768 200.782C139.924 200.46 140.313 200.325 140.637 200.481C140.794 200.559 152.33 206.052 162.17 205.035C162.306 204.968 162.462 204.948 162.613 204.984C165.9 204.575 168.973 203.414 171.338 201.043C171.327 201.028 171.322 201.01 171.312 200.995C169.816 201.369 168.086 201.532 166.224 201.532C155.703 201.532 140.944 196.438 140.139 196.158C139.799 196.039 139.62 195.669 139.738 195.331C139.856 194.991 140.226 194.814 140.566 194.93C140.817 195.019 165.721 203.614 173.4 198.767C174.474 198.089 175.124 197.188 175.381 196.026C173.4 197.142 171.036 197.702 168.323 197.702C165.108 197.702 161.404 196.916 157.272 195.339C150.045 192.58 143.941 188.322 143.881 188.279C143.586 188.073 143.516 187.669 143.721 187.375C143.928 187.082 144.334 187.011 144.628 187.216C144.863 187.382 168.103 203.484 177.445 192.676C177.491 192.157 177.547 190.582 176.614 189.827C175.824 189.19 174.383 189.243 172.447 189.979C166.807 192.126 154.37 188.665 149.869 184.61C148.057 182.979 147.949 181.616 148.177 180.759C148.461 179.693 149.173 178.915 150.286 178.45C154.337 176.76 163.193 179.806 167.01 181.987C167.592 182.318 167.836 182.082 167.94 181.98C168.62 181.322 168.876 179.005 167.564 176.537C166.393 174.335 162.454 169.465 151.214 171.818L151.119 171.837L151.02 171.828L88.2685 165.981C87.9121 165.948 87.6493 165.632 87.6821 165.274C87.715 164.916 88.0303 164.654 88.3901 164.686L92.3978 165.06V159.189H52.9464L54.0469 179.766C54.3737 185.862 58.8052 190.852 64.825 191.899L82.05 194.902C82.0648 194.906 82.0796 194.907 82.0943 194.91L139.909 204.987L139.911 204.991ZM156.86 209.938C155.966 210.105 155.038 210.181 154.094 210.181C147.625 210.181 140.471 206.725 139.495 206.238L87.9318 197.25L97.0034 221.057C99.1403 226.664 105.446 229.49 111.057 227.355L156.86 209.938ZM224.856 184.08C227.574 183.047 229.728 181.017 230.919 178.365C232.109 175.713 232.196 172.756 231.16 170.041L222.906 148.696L201.051 157.007C200.312 157.287 199.552 157.42 198.804 157.42C196.252 157.42 193.839 155.866 192.878 153.344L187.193 138.422C186.591 136.842 186.642 135.124 187.333 133.581C188.026 132.039 189.278 130.859 190.859 130.257L212.821 121.906L204.675 100.52C202.538 94.9128 196.232 92.0871 190.62 94.222L94.8895 130.624L98.5621 159.191H93.7003V165.184L151.045 170.526C163.073 168.042 167.408 173.472 168.714 175.928C170.115 178.562 170.172 181.629 168.847 182.914C168.18 183.56 167.275 183.634 166.366 183.114C162.352 180.823 154.09 178.272 150.789 179.648C150.056 179.953 149.613 180.426 149.435 181.094C149.191 182.01 150.01 182.988 150.74 183.646C154.903 187.395 166.808 190.734 171.985 188.764C174.415 187.838 176.249 187.858 177.435 188.819C179.139 190.199 178.728 192.93 178.711 193.045L178.684 193.222L178.569 193.36C177.992 194.051 177.353 194.658 176.657 195.184C176.739 195.306 176.782 195.455 176.765 195.611C176.639 196.776 176.225 197.779 175.535 198.612C175.773 198.635 175.988 198.786 176.08 199.024C176.208 199.361 176.039 199.736 175.704 199.863L172.854 200.947C172.889 201.139 172.84 201.346 172.698 201.502C170.299 204.139 166.95 205.736 162.801 206.269C162.125 207.247 161.314 208.01 160.404 208.589L224.856 184.079V184.08ZM262.823 194.896C258.012 194.164 255.665 193.345 254.541 192.584C254.144 193.57 253.495 194.374 252.698 194.896H262.823ZM314.681 183.035C314.09 183.375 313.243 183.723 312.027 184.067V189.449C312.027 189.809 311.736 190.099 311.377 190.099C311.019 190.099 310.726 189.809 310.726 189.449V184.4C309.575 184.669 308.177 184.934 306.476 185.186C305.166 185.382 303.759 185.556 302.272 185.71V191.397C302.272 191.757 301.982 192.047 301.622 192.047C301.264 192.047 300.971 191.757 300.971 191.397V185.838C297.412 186.168 293.444 186.386 289.267 186.476V192.047C289.267 192.406 288.976 192.697 288.617 192.697C288.258 192.697 287.966 192.406 287.966 192.047V186.501C286.91 186.517 285.844 186.525 284.768 186.525C283.544 186.525 282.336 186.514 281.138 186.493V192.047C281.138 192.406 280.847 192.697 280.488 192.697C280.128 192.697 279.837 192.406 279.837 192.047V186.466C275.651 186.366 271.681 186.138 268.133 185.797V191.397C268.133 191.757 267.84 192.047 267.482 192.047C267.123 192.047 266.832 191.757 266.832 191.397V185.664C265.505 185.521 264.24 185.362 263.059 185.186C261.141 184.901 259.608 184.602 258.378 184.297V189.449C258.378 189.807 258.087 190.099 257.728 190.099C257.368 190.099 257.077 189.807 257.077 189.449V183.941C256.088 183.637 255.372 183.332 254.853 183.035V188.317L254.922 191.072H254.853C254.853 191.417 256.395 192.626 263.251 193.645C267.657 194.302 273.18 194.73 279.187 194.894H290.238C290.246 194.894 290.252 194.896 290.261 194.896C296.299 194.733 301.855 194.305 306.282 193.645C313.136 192.626 314.68 191.417 314.68 191.072V183.035H314.681ZM314.681 173.291C314.09 173.631 313.243 173.979 312.027 174.323V179.706C312.027 180.063 311.736 180.355 311.377 180.355C311.019 180.355 310.726 180.065 310.726 179.706V174.657C309.575 174.926 308.177 175.19 306.476 175.443C305.166 175.638 303.759 175.81 302.272 175.964V181.653C302.272 182.013 301.982 182.303 301.622 182.303C301.264 182.303 300.971 182.013 300.971 181.653V176.092C297.412 176.424 293.444 176.642 289.267 176.732V182.303C289.267 182.661 288.976 182.953 288.617 182.953C288.258 182.953 287.966 182.661 287.966 182.303V176.755C286.91 176.772 285.844 176.78 284.768 176.78C283.544 176.78 282.336 176.768 281.138 176.747V182.302C281.138 182.661 280.847 182.951 280.488 182.951C280.128 182.951 279.837 182.661 279.837 182.302V176.721C275.651 176.621 271.681 176.393 268.133 176.051V181.653C268.133 182.011 267.84 182.303 267.482 182.303C267.123 182.303 266.832 182.011 266.832 181.653V175.918C265.505 175.776 264.24 175.618 263.059 175.441C261.141 175.155 259.608 174.857 258.378 174.552V179.704C258.378 180.063 258.087 180.354 257.728 180.354C257.368 180.354 257.077 180.063 257.077 179.704V174.195C256.088 173.892 255.372 173.588 254.853 173.29V181.327C254.853 181.67 256.395 182.881 263.251 183.9C268.994 184.755 276.634 185.226 284.767 185.226C292.899 185.226 300.539 184.755 306.282 183.9C313.136 182.881 314.68 181.672 314.68 181.327V173.29L314.681 173.291ZM314.681 163.546C314.09 163.886 313.243 164.235 312.027 164.58V169.96C312.027 170.32 311.736 170.61 311.377 170.61C311.019 170.61 310.726 170.32 310.726 169.96V164.911C309.575 165.18 308.177 165.444 306.476 165.699C305.166 165.892 303.759 166.066 302.272 166.221V171.91C302.272 172.269 301.982 172.559 301.622 172.559C301.264 172.559 300.971 172.269 300.971 171.91V166.349C297.412 166.68 293.444 166.898 289.267 166.989V172.559C289.267 172.917 288.976 173.209 288.617 173.209C288.258 173.209 287.966 172.919 287.966 172.559V167.012C286.91 167.028 285.844 167.036 284.768 167.036C283.544 167.036 282.336 167.025 281.138 167.003V172.558C281.138 172.917 280.847 173.208 280.488 173.208C280.128 173.208 279.837 172.917 279.837 172.558V166.977C275.651 166.877 271.681 166.649 268.133 166.308V171.908C268.133 172.267 267.84 172.558 267.482 172.558C267.123 172.558 266.832 172.267 266.832 171.908V166.175C265.505 166.032 264.24 165.873 263.059 165.697C261.141 165.412 259.608 165.111 258.378 164.808V169.959C258.378 170.318 258.087 170.61 257.728 170.61C257.368 170.61 257.077 170.318 257.077 169.959V164.452C256.088 164.148 255.372 163.843 254.853 163.546V171.583C254.853 171.926 256.395 173.135 263.251 174.156C268.994 175.011 276.634 175.482 284.767 175.482C292.899 175.482 300.539 175.011 306.282 174.156C313.136 173.135 314.68 171.926 314.68 171.583V163.546H314.681ZM314.681 161.839C314.681 161.496 313.139 160.287 306.285 159.266C300.543 158.413 292.902 157.942 284.768 157.942C276.636 157.942 268.995 158.413 263.253 159.266C256.399 160.287 254.856 161.496 254.856 161.839C254.856 162.184 256.399 163.393 263.253 164.412C268.995 165.267 276.636 165.738 284.768 165.738C292.902 165.738 300.543 165.267 306.285 164.412C313.139 163.393 314.681 162.184 314.681 161.839Z" fill="#080717"/>
</g>
</svg>
